<?xml version="1.0" standalone="no"?>
<!DOCTYPE svg PUBLIC "-//W3C//DTD SVG 20010904//EN"
 "http://www.w3.org/TR/2001/REC-SVG-20010904/DTD/svg10.dtd">
<svg version="1.0" xmlns="http://www.w3.org/2000/svg"
 width="600.000000pt" height="126.000000pt" viewBox="0 0 600.000000 126.000000"
 preserveAspectRatio="xMidYMid meet">
<g transform="translate(0.000000,126.000000) scale(0.100000,-0.100000)"
fill="#E8DED4" stroke="none">
<path d="M904 1102 c-17 -2 -29 -22 -53 -85 -18 -45 -43 -107 -56 -137 -63
-148 -92 -219 -156 -385 -82 -208 -139 -316 -139 -260 0 15 -49 137 -195 485
-47 113 -102 244 -122 293 -36 84 -38 87 -70 87 -37 0 -40 -6 -19 -36 8 -11
24 -43 35 -70 17 -44 40 -97 143 -339 16 -38 43 -101 58 -140 157 -384 168
-404 206 -378 6 5 34 66 64 138 29 72 117 285 196 475 79 189 140 347 136 350
-4 3 -17 4 -28 2z"/>
<path d="M4805 1104 c-11 -3 -35 -10 -54 -16 -67 -21 -190 -160 -159 -179 23
-15 46 -10 53 12 12 37 69 92 120 115 68 32 136 32 203 -2 64 -32 88 -61 108
-132 14 -46 14 -61 3 -101 -32 -116 -63 -162 -249 -356 -79 -82 -152 -161
-223 -240 -15 -16 -26 -38 -25 -47 3 -16 28 -18 296 -21 l292 -3 0 28 0 29
-255 -4 c-140 -2 -255 -1 -255 3 0 3 64 73 141 155 205 217 266 291 302 364
28 58 32 75 31 146 0 118 -35 175 -134 225 -44 23 -150 35 -195 24z"/>
<path d="M1945 783 c2 -175 4 -394 4 -486 l1 -168 31 3 31 3 -2 216 -1 216
123 -2 123 -3 125 -210 125 -210 40 -5 c22 -3 41 -4 43 -2 4 3 -212 363 -248
415 l-18 26 62 22 c121 43 176 117 176 233 0 81 -24 133 -80 182 -80 68 -129
80 -347 85 l-192 4 4 -319z m326 257 c133 -25 218 -101 226 -202 4 -49 1 -58
-34 -108 -32 -45 -49 -59 -98 -80 -52 -21 -79 -25 -207 -28 l-148 -4 0 216 0
216 104 0 c57 0 128 -4 157 -10z"/>
<path d="M2787 1033 c-3 -38 -3 -255 0 -483 l5 -415 30 0 30 0 -1 218 -2 217
123 -1 123 0 74 -127 c41 -70 81 -138 90 -152 9 -14 32 -54 51 -89 34 -64 36
-65 78 -67 24 -1 42 1 40 5 -6 13 -121 208 -189 319 -38 62 -69 114 -69 116 0
2 27 13 59 25 207 75 243 330 62 438 -79 47 -164 63 -344 63 l-154 0 -6 -67z
m403 -12 c98 -40 144 -101 142 -188 -2 -62 -30 -123 -69 -151 -67 -46 -136
-62 -278 -62 l-135 0 0 216 0 217 143 -5 c116 -4 152 -9 197 -27z"/>
<path d="M3640 1075 l0 -25 300 0 300 0 0 25 0 25 -300 0 -300 0 0 -25z"/>
<path d="M5651 1074 c-12 -15 -21 -30 -21 -35 0 -4 -6 -14 -13 -21 -10 -11
-42 -58 -107 -158 -55 -84 -214 -322 -257 -384 -19 -27 -33 -59 -33 -76 l0
-30 228 -2 227 -3 2 -115 c1 -114 1 -115 25 -115 23 0 23 2 26 118 l3 117 59
0 c57 0 60 1 60 25 0 24 -2 25 -62 25 l-63 0 3 340 3 340 -30 0 c-20 0 -36 -8
-50 -26z m24 -352 l0 -297 -197 -3 c-109 -1 -198 1 -198 5 0 5 54 89 120 188
65 99 152 231 191 293 40 61 75 112 78 112 3 0 6 -134 6 -298z"/>
<path d="M1326 1062 c-2 -4 -7 -24 -11 -44 -8 -41 -1 -56 133 -306 40 -74 72
-136 72 -138 0 -2 -96 -4 -214 -4 l-214 0 -16 -25 c-9 -13 -16 -29 -16 -35 0
-7 78 -10 247 -10 l247 1 18 -33 c10 -18 53 -100 96 -183 l78 -150 37 -2 c20
-1 37 0 37 3 0 3 -24 52 -54 107 -29 56 -138 265 -241 465 -103 199 -189 362
-190 362 -2 0 -6 -3 -9 -8z"/>
<path d="M3903 652 l-263 -2 0 -28 0 -27 267 2 c267 2 268 2 271 24 2 12 0 24
-5 28 -4 3 -126 5 -270 3z"/>
<path d="M3640 160 l0 -25 307 2 308 2 0 23 0 23 -307 0 -308 0 0 -25z"/>
</g>
</svg>
